<svg aria-hidden="true" style="position: absolute; width: 0; height: 0; overflow: hidden;" version="1.1" xmlns="http://www.w3.org/2000/svg" xmlns:xlink="http://www.w3.org/1999/xlink">
<defs>
<symbol id="goit_logo" viewBox="0 0 111 32">
<path fill="#fff" style="fill: var(--color1, #fff)" opacity="0.3" d="M0 0v32h48.73l12.824-16-12.824-16h-48.73zM21.976 14.368c-0.076-0.060-0.151-0.121-0.226-0.181-0.189-0.152-0.374-0.301-0.565-0.444-0.521-0.394-1.087-0.708-1.736-0.848-0.717-0.155-1.44-0.212-2.155 0.003-1.020 0.305-1.73 0.971-2.199 1.897-0.39 0.771-0.493 1.588-0.391 2.438 0.081 0.665 0.298 1.283 0.694 1.83 0.609 0.841 1.44 1.327 2.479 1.455 0.935 0.116 1.84 0 2.697-0.406 0.293-0.139 0.293-0.142 0.293-0.462v-0.006c0-0.078 0-0.156 0-0.234 0-0.155 0.001-0.31-0-0.466-0-0.031 0-0.058 0.001-0.081 0.001-0.065 0.001-0.098-0.015-0.115s-0.054-0.017-0.129-0.016c-0.019 0-0.040 0.001-0.064 0.001h-2.718c-0.024 0-0.046 0-0.065 0-0.076 0.001-0.113 0.001-0.131-0.017s-0.016-0.051-0.015-0.117c0-0.022 0.001-0.047 0.001-0.077-0.001-0.716-0.001-1.433-0-2.149v-0.007c0-0.356 0-0.712 0-1.068 0-0.013 0-0.026 0.001-0.039 0.001-0.027 0.002-0.054-0.001-0.080-0.005-0.063 0.017-0.097 0.087-0.090 0.027 0.002 0.054 0.001 0.081 0.001l0.024-0.001 0.016-0h6.871c0.045 0 0.083 0.008 0.076 0.065-0.003 0.034 0.018 0.057 0.041 0.080 0.027 0.028 0.054 0.057 0.039 0.108-0.013 0.044-0.010 0.091-0.007 0.139 0.002 0.022 0.003 0.043 0.003 0.064l-0 1.225c-0 1.633-0.001 3.266 0.004 4.898 0 0.133-0.042 0.217-0.144 0.3-1.279 1.049-2.718 1.783-4.345 2.146-0.963 0.215-1.937 0.275-2.922 0.196-1.163-0.092-2.27-0.387-3.291-0.947-1.875-1.027-3.056-2.586-3.599-4.621-0.239-0.899-0.312-1.815-0.235-2.74 0.286-3.429 2.72-6.104 5.981-6.847 0.931-0.213 1.871-0.244 2.82-0.181 0.727 0.049 1.442 0.162 2.142 0.367 1.047 0.309 1.972 0.841 2.813 1.523 0.099 0.080 0.196 0.16 0.291 0.242 0.121 0.102 0.125 0.16 0.019 0.287-0.53 0.631-1.060 1.261-1.591 1.89l-0.001 0.001c-0.264 0.315-0.529 0.63-0.795 0.944-0.007 0.009-0.014 0.018-0.020 0.027-0.029 0.039-0.061 0.081-0.111 0.111zM40.98 11.093c1.243 1.122 2.005 2.521 2.309 4.154 0.339 1.817 0.095 3.557-0.815 5.179-1.080 1.924-2.728 3.158-4.879 3.715-1.851 0.481-3.686 0.384-5.457-0.345-2.306-0.95-3.797-2.656-4.496-5-0.625-2.097-0.398-4.135 0.72-6.035 1.089-1.853 2.728-3.013 4.823-3.553 0.722-0.186 1.402-0.259 2.313-0.261 1.972 0.015 3.88 0.703 5.481 2.146zM35.031 12.848c2.195-0.005 3.63 1.218 4.022 2.914 0.237 1.022 0.132 2.015-0.376 2.943-0.597 1.090-1.529 1.725-2.782 1.866-1.212 0.138-2.27-0.201-3.134-1.064-0.554-0.553-0.888-1.227-1.030-1.987-0.18-0.964-0.069-1.897 0.405-2.762 0.698-1.274 1.813-1.885 2.895-1.909z"></path>
<path fill="#fff" style="fill: var(--color1, #fff)" opacity="0.3" d="M61.554 0h48.992v32h-48.992v-32zM78.002 16.398v7.214c0 0.015 0 0.031 0.001 0.046 0.001 0.030 0.001 0.061-0.001 0.090-0.007 0.084 0.016 0.133 0.113 0.119 0.023-0.002 0.046-0.002 0.069-0.001 0.012 0 0.023 0.001 0.035 0.001 0.409 0 0.818 0 1.228 0h0.003c0.818 0 1.636 0.001 2.455-0 0.026 0 0.049 0 0.069 0.001 0.079 0.001 0.117 0.001 0.135-0.017s0.017-0.053 0.015-0.121c-0-0.012-0.001-0.025-0.001-0.039s-0-0.027-0-0.042v-14.48l-0-0.017-0.001-0.017c-0.001-0.023-0.001-0.046 0.001-0.068 0.009-0.085-0.021-0.13-0.114-0.119-0.018 0.002-0.038 0.002-0.057 0.001-0.010-0-0.020-0.001-0.030-0.001-0.413 0-0.826-0-1.24-0-0.827-0-1.654-0.001-2.481 0-0.009 0-0.018-0-0.026-0-0.014-0-0.027-0-0.039-0-0.068-0.001-0.102-0.002-0.119 0.015s-0.017 0.051-0.016 0.12c0 0.019 0.001 0.041 0.001 0.067v7.248zM98.524 8.949h-6.148c-2.047 0-4.095 0-6.14-0.002-0.016 0-0.031 0-0.046 0-0.031 0-0.061 0.001-0.092-0-0.069-0.003-0.094 0.029-0.088 0.092 0.001 0.019 0.001 0.038 0 0.057-0 0.009-0 0.019-0 0.029v3.463c0 0.099-0.003 0.144 0.018 0.165s0.069 0.016 0.171 0.016h3.861c0.126 0 0.188 0 0.219 0.031s0.031 0.090 0.031 0.208v10.677c0 0.098-0.006 0.144 0.014 0.165s0.067 0.018 0.171 0.018h3.705c0.116 0 0.173 0 0.202-0.028s0.028-0.083 0.028-0.194v-10.677c0-0.108-0.007-0.157 0.015-0.18s0.074-0.018 0.191-0.018h3.93c0.17 0 0.17 0 0.171-0.165v-3.446c0-0.119 0.007-0.171-0.017-0.194s-0.076-0.016-0.194-0.016z"></path>
</symbol>
<symbol id="icon-round" viewBox="0 0 32 32">
<path fill="#ebd8ff" style="fill: var(--color1, #ebd8ff)" d="M16.18 25.568c-6.178 0-11.186-5.008-11.186-11.186s5.008-11.186 11.186-11.186c6.178 0 11.186 5.008 11.186 11.186s-5.008 11.186-11.186 11.186zM16.18 28.764c7.943 0 14.382-6.439 14.382-14.382s-6.439-14.382-14.382-14.382c-7.943 0-14.382 6.439-14.382 14.382s6.439 14.382 14.382 14.382z"></path>
</symbol>
 <symbol id="arrow"  width="66" height="43" viewBox="0 0 66 43" xmlns="http://www.w3.org/2000/svg">
        <path d="M40.1543933,3.89485454 L43.9763149,0.139296592 C44.1708311,-0.0518420739 44.4826329,-0.0518571125 44.6771675,0.139262789 L65.6916134,20.7848311 C66.0855801,21.1718824 66.0911863,21.8050225 65.704135,22.1989893 C65.7000188,22.2031791 65.6958657,22.2073326 65.6916762,22.2114492 L44.677098,42.8607841 C44.4825957,43.0519059 44.1708242,43.0519358 43.9762853,42.8608513 L40.1545186,39.1069479 C39.9575152,38.9134427 39.9546793,38.5968729 40.1481845,38.3998695 C40.1502893,38.3977268 40.1524132,38.395603 40.1545562,38.3934985 L56.9937789,21.8567812 C57.1908028,21.6632968 57.193672,21.3467273 57.0001876,21.1497035 C56.9980647,21.1475418 56.9959223,21.1453995 56.9937605,21.1432767 L40.1545208,4.60825197 C39.9574869,4.41477773 39.9546013,4.09820839 40.1480756,3.90117456 C40.1501626,3.89904911 40.1522686,3.89694235 40.1543933,3.89485454 Z" fill="#FFFFFF" />
        <path d="M20.1543933,3.89485454 L23.9763149,0.139296592 C24.1708311,-0.0518420739 24.4826329,-0.0518571125 24.6771675,0.139262789 L45.6916134,20.7848311 C46.0855801,21.1718824 46.0911863,21.8050225 45.704135,22.1989893 C45.7000188,22.2031791 45.6958657,22.2073326 45.6916762,22.2114492 L24.677098,42.8607841 C24.4825957,43.0519059 24.1708242,43.0519358 23.9762853,42.8608513 L20.1545186,39.1069479 C19.9575152,38.9134427 19.9546793,38.5968729 20.1481845,38.3998695 C20.1502893,38.3977268 20.1524132,38.395603 20.1545562,38.3934985 L36.9937789,21.8567812 C37.1908028,21.6632968 37.193672,21.3467273 37.0001876,21.1497035 C36.9980647,21.1475418 36.9959223,21.1453995 36.9937605,21.1432767 L20.1545208,4.60825197 C19.9574869,4.41477773 19.9546013,4.09820839 20.1480756,3.90117456 C20.1501626,3.89904911 20.1522686,3.89694235 20.1543933,3.89485454 Z" fill="#FFFFFF" />
        <path d="M0.154393339,3.89485454 L3.97631488,0.139296592 C4.17083111,-0.0518420739 4.48263286,-0.0518571125 4.67716753,0.139262789 L25.6916134,20.7848311 C26.0855801,21.1718824 26.0911863,21.8050225 25.704135,22.1989893 C25.7000188,22.2031791 25.6958657,22.2073326 25.6916762,22.2114492 L4.67709797,42.8607841 C4.48259567,43.0519059 4.17082418,43.0519358 3.97628526,42.8608513 L0.154518591,39.1069479 C-0.0424848215,38.9134427 -0.0453206733,38.5968729 0.148184538,38.3998695 C0.150289256,38.3977268 0.152413239,38.395603 0.154556228,38.3934985 L16.9937789,21.8567812 C17.1908028,21.6632968 17.193672,21.3467273 17.0001876,21.1497035 C16.9980647,21.1475418 16.9959223,21.1453995 16.9937605,21.1432767 L0.15452076,4.60825197 C-0.0425130651,4.41477773 -0.0453986756,4.09820839 0.148075568,3.90117456 C0.150162624,3.89904911 0.152268631,3.89694235 0.154393339,3.89485454 Z" fill="#FFFFFF" />
</symbol>
</defs>
</svg>
